<?xml version="1.0" encoding="UTF-8" standalone="no"?>
<svg
   xmlns:dc="http://purl.org/dc/elements/1.1/"
   xmlns:cc="http://creativecommons.org/ns#"
   xmlns:rdf="http://www.w3.org/1999/02/22-rdf-syntax-ns#"
   xmlns:svg="http://www.w3.org/2000/svg"
   xmlns="http://www.w3.org/2000/svg"
   xmlns:sodipodi="http://sodipodi.sourceforge.net/DTD/sodipodi-0.dtd"
   xmlns:inkscape="http://www.inkscape.org/namespaces/inkscape"
   width="297mm"
   height="210mm"
   viewBox="0 0 1052.3622 744.09448"
   id="svg2"
   version="1.1"
   inkscape:version="0.91 r13725"
   sodipodi:docname="Hackspace_Sample_SVG_Plain.svg">
  <sodipodi:namedview
     pagecolor="#ffffff"
     bordercolor="#666666"
     borderopacity="1"
     objecttolerance="10"
     gridtolerance="10"
     guidetolerance="10"
     inkscape:pageopacity="0"
     inkscape:pageshadow="2"
     inkscape:window-width="1600"
     inkscape:window-height="835"
     id="namedview3412"
     showgrid="false"
     inkscape:zoom="0.86010582"
     inkscape:cx="499.75855"
     inkscape:cy="372.04724"
     inkscape:window-x="0"
     inkscape:window-y="824"
     inkscape:window-maximized="1"
     inkscape:current-layer="svg2" />
  <metadata
     id="metadata8">
    <rdf:RDF>
      <cc:Work
         rdf:about="">
        <dc:format>image/svg+xml</dc:format>
        <dc:type
           rdf:resource="http://purl.org/dc/dcmitype/StillImage" />
        <dc:title />
      </cc:Work>
    </rdf:RDF>
  </metadata>
  <defs
     id="defs4" />
  <path
     id="box"
     d="M 45,45 L45,699 L1007,699 L1007,45 Z"
     style="fill:none;fill-rule:evenodd;stroke:#000000;stroke-width:1px;stroke-linecap:round;stroke-linejoin:round;stroke-opacity:1"
     inkscape:label="#path3335" />
  <path
     style="fill:none;fill-rule:evenodd;stroke:#000000;stroke-width:1px;stroke-linecap:round;stroke-linejoin:round;stroke-opacity:1"
     d="m 104.64363,665.28879 l0,-605.899509 l45,44.999999 l-45,-44.999999 l-45.000005,44.999999"
     id="path4146" />
  <path
     style="fill:none;fill-rule:evenodd;stroke:#000000;stroke-width:1px;stroke-linecap:round;stroke-linejoin:round;stroke-opacity:1"
     d="m 178.90004,635.57517 810.07446,0 -45,45 45,-45 -45,-45"
     id="horizontal_arrow"
     inkscape:label="#path4202" />
  <path
     style="fill:none;fill-rule:evenodd;stroke:#000000;stroke-width:1px;stroke-linecap:round;stroke-linejoin:round;stroke-opacity:1"
     d="M 140.81673,613.61293 L662.74296,91.6867 l-56.02897,15.012918 l37.465,37.465 L662.74296,91.6867"
     id="diagonal_arrow"
     inkscape:label="#path4139" />
  <path
     style="fill:none;fill-rule:evenodd;stroke:#000000;stroke-width:1px;stroke-linecap:round;stroke-linejoin:round;stroke-opacity:1"
     d="m 130.48156,396.5743 c 80.09759,-15.50275 96.89224,-10.33518 153.73569,37.465"
     id="arc"
     inkscape:label="#path4158" />
  <path
     style="fill:none;fill-rule:evenodd;stroke:#000000;stroke-width:1px;stroke-linecap:round;stroke-linejoin:round;stroke-opacity:1"
     d="m 156.31949,285.47119 -23.25414,40.0488 45.21638,-1.2919 -21.96224,1.2919 0,-15.50276 0,34.88121"
     id="number_4"
     inkscape:label="#path4142" />
  <path
     style="fill:none;fill-rule:evenodd;stroke:#000000;stroke-width:1px;stroke-linecap:round;stroke-linejoin:round;stroke-opacity:1"
     d="m 219.62243,289.34688 -33.58932,0 0,27.12983 29.71363,1.2919 -1.2919,25.83793 -28.42173,-1.2919"
     id="number_5"
     inkscape:label="#path4150" />
  <path
     style="fill:none;fill-rule:evenodd;stroke:#000000;stroke-width:1px;stroke-linecap:round;stroke-linejoin:round;stroke-opacity:1"
     id="circle"
     d="m 249.18902,280.46871 a 11.593353,11.659378 0 0 1 15.18104,-5.65587 11.593353,11.659378 0 0 1 6.0016,15.12134 11.593353,11.659378 0 0 1 -14.88098,6.4119 11.593353,11.659378 0 0 1 -6.74561,-14.80076"
     inkscape:label="#path4152" />
  <path
     style="fill:none;fill-rule:evenodd;stroke:#000000;stroke-width:1px;stroke-linecap:round;stroke-linejoin:round;stroke-opacity:1"
     d="m 901.74384,51.637906 l98.18414,0 L999.92798,51.637905 l0,80.097585"
     id="right_angle"
     inkscape:label="#path4143" />
  <path
     style="fill:none;fill-rule:evenodd;stroke:#000000;stroke-width:1px;stroke-linecap:round;stroke-linejoin:round;stroke-opacity:1"
     d="m 954.7116,96.854286 c -34.88121,1.291895 -58.28284,13.759514 -54.25966,34.881204 5.16758,27.12983 114.97886,7.75138 85.26517,38.75691 -15.83942,16.52808 -100.76793,-7.75139 -105.93552,16.79465 -11.46585,54.46277 100.76802,-5.16759 103.35173,37.465 1.64117,27.08015 -200.24398,37.465 -122.73018,60.71915 66.52172,19.95652 148.56806,-51.67588 107.22742,20.67034 -37.56046,65.73086 -139.52483,-6.45949 -139.52483,41.34069 0,49.86787 158.42845,11.64869 160.19517,45.21638 3.87569,73.63811 -207.99535,-5.16758 -179.57363,46.50828 28.42173,51.67586 205.41163,45.21638 174.40605,62.01104"
     id="squiggle"
     inkscape:label="#path4157" />
  <path
     style="fill:none;fill-rule:evenodd;stroke:#000000;stroke-width:1px;stroke-linecap:round;stroke-linejoin:round;stroke-opacity:1"
     id="pacman"
     d="M 442.03417,176.73553 A 129.83562,82.035439 0 0 1 300.49171,230.30461 129.83562,82.035439 0 0 1 190.03989,152.86158 129.83562,82.035439 0 0 1 289.04419,69.466979 129.83562,82.035439 0 0 1 437.62541,114.79236 L 319.74442,149.1761 Z"
     inkscape:label="#path4145" />
  <path
     style="fill:none;fill-rule:evenodd;stroke:#000000;stroke-width:1px;stroke-linecap:round;stroke-linejoin:round;stroke-opacity:1"
     d="m 243.33331,176.71677 c 14.18628,-2.56141 9.86513,-23.80726 11.36288,-30.16585 3.84433,-16.32085 -18.24328,-15.35054 -18.24328,-15.35054 l 69.49821,1.14188 c 0,0 -21.48967,-1.82259 -24.61768,21.16744 -0.79769,5.86279 -9.78782,30.02786 22.28244,15.1915"
     id="pi"
     inkscape:label="#path4151" />
  <path
     style="fill:none;fill-rule:evenodd;stroke:#000000;stroke-width:1px;stroke-linecap:round;stroke-linejoin:round;stroke-opacity:1"
     id="spiral"
     d="m 742.26107,218.35231 c 14.0832,-2.40863 26.03968,8.74654 27.41946,20.9747 1.96365,17.40266 -14.44026,31.59705 -32.69778,32.57404 -23.91259,1.2796 -43.04359,-17.69528 -43.74947,-38.88843 -0.87828,-26.36941 24.22283,-47.23048 52.26705,-47.52255 33.69737,-0.35095 60.1622,26.65274 60.0795,56.80216 -0.0968,35.32264 -34.00959,62.92324 -71.83632,62.47107 -43.47628,-0.51971 -77.32121,-35.6124 -76.40954,-74.7159 1.03222,-44.27348 43.79794,-78.64068 91.4056,-77.41957 17.91964,0.45963 35.51866,5.77313 50.31209,15.02386"
     inkscape:label="#path4161" />
  <path
     style="fill:none;fill-rule:evenodd;stroke:#000000;stroke-width:1px;stroke-linecap:round;stroke-linejoin:round;stroke-opacity:1"
     d="m 648.95181,597.79026 c -1.03125,-1.03125 -1.875,-2.78789 -1.875,-3.90365 0,-1.11574 3.22364,-12.4009 7.16365,-25.07812 6.48147,-20.85448 8.13311,-24.9905 17.34375,-43.43196 l 10.1801,-20.38247 0,-24.01874 0,-24.01873 -3.04688,0.52957 c -1.67578,0.29127 -8.95312,1.23324 -16.17187,2.09327 l -13.125,1.56372 -20.625,-5.29002 c -11.34375,-2.9095 -21.98502,-5.90179 -23.64727,-6.64953 -3.46268,-1.55765 -4.78862,-5.05026 -3.22234,-8.48786 1.83752,-4.03292 4.6365,-3.82415 27.66312,2.06339 l 21.70649,5.55002 15.23437,-1.85397 15.23438,-1.85397 0.17578,-5.91548 c 0.0967,-3.2535 0.20214,-7.02906 0.23438,-8.39011 0.0496,-2.09358 -0.51888,-2.64726 -3.69141,-3.59555 -10.16168,-3.0374 -17.83167,-9.62283 -22.41136,-19.24231 -2.5769,-5.41269 -2.90114,-7.03675 -2.90114,-14.53125 0,-7.4945 0.32424,-9.11856 2.90114,-14.53125 3.68713,-7.7447 9.51041,-13.56798 17.25511,-17.25511 5.41269,-2.5769 7.03675,-2.90114 14.53125,-2.90114 7.4945,0 9.11856,0.32424 14.53125,2.90114 7.7447,3.68713 13.56798,9.51041 17.25511,17.25511 2.5769,5.41269 2.90114,7.03675 2.90114,14.53125 0,7.4945 -0.32424,9.11856 -2.90114,14.53125 -1.59563,3.35156 -4.75969,7.94997 -7.03125,10.21869 -3.70819,3.70354 -13.71449,9.46617 -16.4405,9.46807 -0.95549,6.6e-4 -2.96295,17.54847 -2.07877,18.17125 0.17966,0.12656 8.24374,2.6837 17.92015,5.68254 l 17.59349,5.45245 4.43776,-1.67131 c 2.44077,-0.91922 11.80652,-4.55983 20.81279,-8.09025 9.00626,-3.53042 17.33829,-6.41894 18.51563,-6.41894 2.66749,0 5.89059,3.1115 5.89059,5.68663 0,3.53117 -1.75378,5.30142 -7.70399,7.77639 -16.09796,6.69585 -39.79802,15.59948 -41.52337,15.59948 -1.07032,0 -9.37199,-2.32031 -18.44814,-5.15625 -9.07616,-2.83594 -16.75746,-5.15625 -17.06955,-5.15625 -0.3121,0 -0.56745,10.27182 -0.56745,22.82628 l 0,22.82628 8.77074,21.51505 c 7.68641,18.8551 9.42637,24.23331 14.07372,43.50185 2.91662,12.09273 5.29791,22.93601 5.29175,24.09616 -0.0149,2.80785 -3.19434,5.85938 -6.10496,5.85938 -4.54132,0 -5.63322,-2.5045 -11.28464,-25.88374 -4.05995,-16.79554 -6.77269,-25.70554 -10.92431,-35.88101 -3.03772,-7.44534 -5.78473,-13.96028 -6.10447,-14.47762 -0.31973,-0.51734 -3.44595,4.71853 -6.94715,11.63525 -6.00561,11.8643 -7.76746,16.69364 -17.87527,48.99719 -2.07311,6.62547 -4.57111,12.84813 -5.55111,13.82813 -2.31226,2.31226 -5.9798,2.2713 -8.3443,-0.0932 z m 49.28662,-185.43514 c 8.06026,-4.14413 12.07015,-10.90341 12.07015,-20.34611 0,-7.0827 -1.46348,-10.98792 -5.91692,-15.78898 -4.35265,-4.69241 -9.22908,-6.65533 -16.5336,-6.65533 -7.30452,0 -12.18095,1.96292 -16.5336,6.65533 -4.45344,4.80106 -5.91692,8.70628 -5.91692,15.78898 0,10.98752 5.64856,18.63904 16.3507,22.1486 3.72267,1.22078 12.4583,0.26533 16.48019,-1.80249 z"
     id="bubbleman"
     inkscape:label="#path4159" />
  <path
     style="fill:none;fill-rule:evenodd;stroke:#000000;stroke-width:1px;stroke-linecap:round;stroke-linejoin:round;stroke-opacity:1"
     d="m 447.79316,594.78496 13.24588,-40.19439 21.92421,-42.47816 17.81342,41.56465 10.0486,41.56465 -9.59184,-41.1079 -17.81343,-41.56465 -0.45675,-60.74834 -37.91062,3.65404 -44.30518,-10.96211 42.47816,10.96211 39.28088,-3.65404 41.56466,12.33237 44.30518,-15.9864 -43.84843,15.9864 -41.56465,-12.33237 -0.45676,-29.23228 -8.67833,-0.91351 -9.13509,-5.0243 -6.39456,-7.76482 -3.65403,-9.59185 0,-10.50535 3.19728,-10.50535 8.67833,-7.76482 10.0486,-5.48106 9.13509,-0.45675 11.41886,3.19728 7.76482,8.22158 4.11079,6.85131 3.19728,8.22158 -2.28377,11.87562 -4.11079,9.59184 -9.13509,7.30807 -8.67833,3.19728 -5.0243,0"
     id="stickman"
     inkscape:label="#path4168" />
</svg>
