<?xml version="1.0" encoding="UTF-8" standalone="no"?>
<!-- Created with Inkscape (http://www.inkscape.org/) -->

<svg
   xmlns:dc="http://purl.org/dc/elements/1.1/"
   xmlns:cc="http://creativecommons.org/ns#"
   xmlns:rdf="http://www.w3.org/1999/02/22-rdf-syntax-ns#"
   xmlns:svg="http://www.w3.org/2000/svg"
   xmlns="http://www.w3.org/2000/svg"
   xmlns:sodipodi="http://sodipodi.sourceforge.net/DTD/sodipodi-0.dtd"
   xmlns:inkscape="http://www.inkscape.org/namespaces/inkscape"
   sodipodi:docname="StickMan.svg"
   inkscape:version="0.91 r13725"
   version="1.1"
   id="svg2"
   viewBox="0 0 744.09449 1052.3622"
   height="297mm"
   width="210mm">
  <defs
     id="defs4" />
  <sodipodi:namedview
     inkscape:window-maximized="1"
     inkscape:window-y="824"
     inkscape:window-x="0"
     inkscape:window-height="835"
     inkscape:window-width="1600"
     showgrid="false"
     inkscape:current-layer="svg2"
     inkscape:document-units="mm"
     inkscape:cy="425.16114"
     inkscape:cx="453.21201"
     inkscape:zoom="0.70000001"
     inkscape:pageshadow="2"
     inkscape:pageopacity="0.0"
     borderopacity="1.0"
     bordercolor="#666666"
     pagecolor="#ffffff"
     id="base" />
  <metadata
     id="metadata7">
    <rdf:RDF>
      <cc:Work
         rdf:about="">
        <dc:format>image/svg+xml</dc:format>
        <dc:type
           rdf:resource="http://purl.org/dc/dcmitype/StillImage" />
        <dc:title />
      </cc:Work>
    </rdf:RDF>
  </metadata>
  <path
     inkscape:label="Stick man"
     sodipodi:nodetypes="sacaczcszsczcacascs"
     inkscape:connector-curvature="0"
     id="stickman"
     d="m 227.25421,783.71608 c -14.79922,7.01147 -65.07631,-45.58598 -47.14286,-65.71429 11.41486,-12.81192 28.15454,10.73618 45,25 53.11126,-30.83877 83.08574,-91.06675 102.14286,-147.85714 14.10186,-42.02368 5.71428,-132.85714 5.71428,-132.85714 -37.65272,26.34999 -180.89634,33.44549 -180,11.03989 0.89634,-22.4056 123.34129,5.03797 189.28572,-60.32561 0.27223,-33.77362 -29.40511,-13.38383 -37.86075,-73.22321 -8.89922,-62.97852 48.40795,-71.77679 67.65378,-71.77679 19.24583,0 76.553,8.79827 67.65378,71.77679 -8.45564,59.83938 -38.13298,39.44959 -37.86075,73.22321 65.94443,65.36358 188.38938,37.92001 189.28572,60.32561 0.89634,22.4056 -142.34728,15.3101 -180,-11.03989 0,0 -8.38758,90.83346 5.71428,132.85714 19.05712,56.79039 49.0316,117.01837 102.14286,147.85714 16.84546,-14.26382 33.58514,-37.81192 45,-25 17.93345,20.12831 -32.35527,72.75025 -47.14286,65.71429 -63.62549,-30.27313 -133.13801,-107.93144 -144.79303,-151.42857 -11.65643,43.5024 -80.92746,121.1708 -144.79303,151.42857 z"
     style="fill:none;fill-rule:evenodd;stroke:#000000;stroke-width:1px;stroke-linecap:butt;stroke-linejoin:miter;stroke-opacity:1">
    <desc
       id="desc3333">A stick man, drawn using cubic Bezier curves.</desc>
  </path>
</svg>
